<?xml version="1.0" encoding="utf-8"?>
<svg version="1.1" viewBox="0.00 0.00 352.00 292.00" xmlns="http://www.w3.org/2000/svg">
    <path d=" M 236.56 102.27 A 64.81 64.81 0.0 0 1 171.75 167.08 A 64.81 64.81 0.0 0 1 106.94 102.27 A 64.81 64.81 0.0 0 1 171.75 37.46 A 64.81 64.81 0.0 0 1 236.56 102.27 Z M 181.25 101.05 L 196.75 101.03 A 1.28 1.28 0.0 0 0 198.03 99.75 L 198.04 72.82 Q 198.04 71.60 196.82 71.60 L 146.81 71.65 A 1.30 1.29 -0.2 0 0 145.52 72.94 L 145.50 99.93 A 1.17 1.16 -0.2 0 0 146.68 101.09 L 161.76 100.99 Q 162.35 100.99 162.45 101.57 Q 162.75 103.25 162.41 104.93 A 0.65 0.64 6.7 0 0 163.03 105.70 Q 163.06 105.70 163.97 105.72 Q 164.79 105.73 164.79 104.91 L 164.79 96.22 Q 164.79 95.35 165.66 95.34 L 177.28 95.28 A 1.25 1.24 89.8 0 1 178.53 96.53 L 178.49 105.04 Q 178.49 105.85 179.29 105.76 L 180.04 105.67 Q 180.90 105.57 180.83 104.71 L 180.60 101.76 Q 180.54 101.05 181.25 101.05 Z M 173.01 100.20 A 0.97 0.96 -73.8 0 0 172.36 99.01 Q 171.76 98.84 171.20 99.01 A 1.11 1.11 0.0 0 0 171.05 101.08 Q 172.55 101.80 173.01 100.20 Z M 182.19 117.91 Q 181.55 119.28 180.04 119.28 L 168.11 119.34 Q 167.31 119.34 167.30 120.14 L 167.29 120.95 A 0.67 0.67 0.0 0 0 167.96 121.63 L 179.15 121.65 Q 182.83 121.65 184.55 118.39 Q 184.89 117.76 185.11 117.06 Q 186.21 113.57 182.55 113.59 L 173.42 113.64 Q 172.70 113.65 172.71 112.92 L 172.82 103.68 Q 172.82 103.30 172.44 103.28 L 171.27 103.23 Q 170.50 103.20 170.50 103.98 L 170.52 113.01 A 0.65 0.65 0.0 0 1 169.87 113.67 L 156.90 113.65 A 3.36 3.36 0.0 0 0 154.55 114.61 L 141.96 127.00 Q 141.15 127.79 141.96 128.59 L 142.14 128.77 Q 142.78 129.40 143.42 128.76 L 155.53 116.52 A 2.45 2.44 -67.6 0 1 157.27 115.79 L 181.90 115.80 Q 183.17 115.80 182.63 116.95 L 182.19 117.91 Z M 198.64 111.36 A 4.26 4.24 -25.2 0 1 197.41 114.75 L 183.98 128.20 A 1.11 1.09 22.0 0 1 183.20 128.52 L 160.89 128.54 A 2.71 2.70 22.4 0 0 158.98 129.33 L 152.03 136.32 Q 151.47 136.88 151.94 137.51 Q 152.11 137.75 152.39 137.88 Q 153.35 138.32 154.10 137.56 L 160.17 131.43 A 2.22 2.22 0.0 0 1 161.74 130.78 L 184.03 130.78 Q 184.57 130.78 184.95 130.41 L 198.85 116.76 Q 202.01 113.66 200.61 109.45 Q 200.37 108.74 200.11 108.05 Q 198.74 104.45 196.02 107.17 L 187.09 116.06 Q 186.51 116.64 187.23 117.04 L 187.70 117.30 Q 188.46 117.72 189.07 117.12 L 196.93 109.45 Q 198.33 108.08 198.51 110.03 Q 198.58 110.69 198.64 111.36 Z M 165.2021 109.4622 A 1.44 1.30 11.3 0 0 164.0447 107.9052 A 1.44 1.30 11.3 0 0 162.3779 108.8978 A 1.44 1.30 11.3 0 0 163.5353 110.4548 A 1.44 1.30 11.3 0 0 165.2021 109.4622 Z M 181.1250 109.0438 A 0.81 0.81 0.0 0 0 180.4420 108.1241 L 179.3340 107.9605 A 0.81 0.81 0.0 0 0 178.4144 108.6435 L 178.3150 109.3162 A 0.81 0.81 0.0 0 0 178.9980 110.2359 L 180.1060 110.3995 A 0.81 0.81 0.0 0 0 181.0256 109.7165 L 181.1250 109.0438 Z M 165.0399 119.9641 A 0.67 0.67 0.0 0 0 164.3829 119.2814 L 163.2231 119.2591 A 0.67 0.67 0.0 0 0 162.5404 119.9161 L 162.5201 120.9759 A 0.67 0.67 0.0 0 0 163.1771 121.6586 L 164.3369 121.6809 A 0.67 0.67 0.0 0 0 165.0196 121.0239 L 165.0399 119.9641 Z" style="fill: rgb(25, 135, 84);"/>
    <path d=" M 154.56 78.46 Q 153.93 80.16 152.26 80.78 A 1.56 1.55 80.1 0 0 151.24 82.24 L 151.24 90.21 A 1.61 1.61 0.0 0 0 152.02 91.59 Q 153.86 92.70 154.84 94.50 A 1.48 1.46 76.1 0 0 156.09 95.26 L 162.06 95.44 A 0.60 0.59 2.4 0 1 162.64 96.06 L 162.54 97.91 Q 162.50 98.80 161.60 98.80 L 148.29 98.82 A 0.53 0.53 0.0 0 1 147.76 98.29 L 147.78 74.67 A 0.81 0.80 -90.0 0 1 148.58 73.86 L 195.22 73.92 A 0.30 0.30 0.0 0 1 195.52 74.22 L 195.50 98.28 A 0.53 0.53 0.0 0 1 194.97 98.81 L 181.55 98.78 Q 180.81 98.78 180.73 98.05 L 180.52 96.28 Q 180.42 95.48 181.22 95.45 L 187.46 95.21 A 1.42 1.42 0.0 0 0 188.65 94.48 Q 189.55 92.83 191.18 91.85 A 2.24 2.23 74.6 0 0 192.27 89.93 L 192.26 82.58 Q 192.26 81.66 191.50 81.13 Q 189.71 79.88 188.45 78.03 Q 187.93 77.27 187.01 77.27 L 156.27 77.27 A 1.82 1.82 0.0 0 0 154.56 78.46 Z" style="fill: rgb(25, 135, 84);"/>
    <path d=" M 165.26 80.36 C 161.95 83.94 161.97 88.38 165.15 92.28 Q 165.84 93.13 164.74 93.12 L 158.09 93.04 Q 157.05 93.03 156.32 92.29 L 154.00 89.94 A 1.79 1.77 -67.7 0 1 153.48 88.68 L 153.49 83.83 Q 153.49 83.23 153.91 82.81 L 156.63 80.11 Q 157.07 79.67 157.70 79.68 L 164.97 79.69 Q 165.86 79.70 165.26 80.36 Z M 159.2720 86.8688 A 1.37 1.21 21.8 0 0 158.4494 85.2365 A 1.37 1.21 21.8 0 0 156.7280 85.8512 A 1.37 1.21 21.8 0 0 157.5506 87.4835 A 1.37 1.21 21.8 0 0 159.2720 86.8688 Z" style="fill: rgb(25, 135, 84);"/>
    <circle cx="171.69" cy="86.34" r="6.70" style="fill: rgb(25, 135, 84);"/>
    <path d=" M 179.93 89.74 Q 181.77 84.64 178.52 80.68 Q 177.71 79.70 178.98 79.70 L 185.52 79.72 Q 186.47 79.72 187.14 80.38 L 189.57 82.75 Q 190.10 83.27 190.10 84.03 L 190.03 88.76 A 1.55 1.52 -23.3 0 1 189.59 89.83 L 187.03 92.41 Q 186.46 92.99 185.65 92.99 L 179.06 93.05 Q 178.31 93.05 178.62 92.37 C 179.04 91.47 179.59 90.70 179.93 89.74 Z M 186.62 86.42 A 1.24 1.24 0.0 0 0 185.38 85.18 A 1.24 1.24 0.0 0 0 184.14 86.42 A 1.24 1.24 0.0 0 0 185.38 87.66 A 1.24 1.24 0.0 0 0 186.62 86.42 Z" style="fill: rgb(25, 135, 84);"/>
    <path d="M 273.038 188.997 L 277.338 189.037 C 277.631 189.035 277.816 189.35 277.672 189.604 C 277.652 189.639 277.627 189.67 277.598 189.697 L 266.918 199.947 C 266.761 200.097 266.761 200.347 266.918 200.497 L 278.568 211.337 C 278.784 211.535 278.704 211.892 278.425 211.98 C 278.391 211.991 278.355 211.996 278.318 211.997 L 274.138 212.077 C 274.042 212.078 273.949 212.042 273.878 211.977 L 263.228 202.217 C 263.015 202.017 262.665 202.123 262.598 202.408 C 262.591 202.437 262.588 202.467 262.588 202.497 L 262.618 211.637 C 262.618 211.847 262.448 212.017 262.238 212.017 L 258.778 212.047 C 258.568 212.047 258.398 211.877 258.398 211.667 L 258.288 178.407 C 258.288 178.197 258.458 178.027 258.668 178.027 L 262.358 178.027 C 262.568 178.027 262.738 178.197 262.738 178.407 L 262.618 198.327 C 262.624 198.62 262.944 198.796 263.194 198.645 C 263.217 198.632 263.239 198.615 263.258 198.597 L 272.768 189.107 C 272.84 189.036 272.937 188.996 273.038 188.997 Z" style="fill: rgb(25, 135, 84);"/>
    <rect x="-2.08" y="-16.49" transform="matrix(0.999994, -0.003491, 0.003491, 0.999994, 70.978142, 195.526749)" width="4.16" height="32.98" rx="0.95" style="fill: rgb(25, 135, 84);"/>
    <path d="M 193.448 195.477 C 197.201 197.337 198.721 200.52 198.008 205.027 C 197.238 209.897 193.148 211.847 188.608 211.947 C 183.828 212.054 178.905 212.067 173.838 211.987 C 173.573 211.987 173.358 211.768 173.358 211.497 L 173.338 179.707 C 173.338 179.254 173.561 179.027 174.008 179.027 C 179.461 178.967 184.435 178.974 188.928 179.047 C 197.438 179.197 200.908 190.477 193.428 194.657 C 192.921 194.944 192.928 195.217 193.448 195.477 Z M 177.508 182.887 L 177.508 193.147 C 177.508 193.467 177.768 193.727 178.088 193.727 L 186.998 193.727 C 190.516 193.727 193.368 191.412 193.368 188.557 L 193.368 187.477 C 193.368 184.622 190.516 182.307 186.998 182.307 L 178.088 182.307 C 177.768 182.307 177.508 182.567 177.508 182.887 Z M 177.388 197.887 L 177.448 208.047 C 177.448 208.472 177.793 208.817 178.218 208.817 L 188.248 208.767 C 191.483 208.749 194.093 206.381 194.078 203.477 L 194.078 202.297 C 194.063 199.391 191.426 197.049 188.188 197.067 L 178.158 197.117 C 177.733 197.117 177.388 197.462 177.388 197.887 Z" style="fill: rgb(25, 135, 84);"/>
    <path d="M 135.568 188.997 L 140.718 189.087 C 141.311 189.1 141.625 189.407 141.658 190.007 L 141.688 190.517 C 141.741 191.457 141.298 191.937 140.358 191.957 L 135.348 192.027 C 135.021 192.033 134.758 192.295 134.758 192.617 C 134.765 196.917 134.785 201.167 134.818 205.367 C 134.838 208.397 137.758 208.977 140.168 208.557 C 140.928 208.424 141.328 208.74 141.368 209.507 L 141.418 210.487 C 141.451 211.18 141.128 211.604 140.448 211.757 C 135.438 212.857 130.828 211.067 130.688 205.247 C 130.575 200.834 130.601 196.68 130.768 192.787 C 130.781 192.327 130.561 192.087 130.108 192.067 L 127.298 191.967 C 126.505 191.934 126.108 191.517 126.108 190.717 L 126.108 190.307 C 126.108 189.487 126.515 189.067 127.328 189.047 L 130.078 188.987 C 130.518 188.98 130.735 188.754 130.728 188.307 L 130.678 184.167 C 130.672 183.314 131.244 182.566 132.068 182.347 L 133.738 181.907 C 134.445 181.72 134.801 181.997 134.808 182.737 L 134.818 188.227 C 134.818 188.727 135.068 188.984 135.568 188.997 Z" style="fill: rgb(25, 135, 84);"/>
    <path d="M 161.898 191.057 L 162.118 189.707 C 162.191 189.247 162.458 189.017 162.918 189.017 L 165.348 189.007 C 165.855 189 166.108 189.254 166.108 189.767 L 166.098 211.157 C 166.098 211.636 165.707 212.023 165.228 212.017 L 162.928 211.987 C 162.424 211.982 162.025 211.56 162.048 211.057 L 162.088 210.047 C 162.141 208.874 161.765 208.717 160.958 209.577 C 160.085 210.51 159.041 211.16 157.828 211.527 C 146.428 214.927 141.498 203.057 145.228 194.417 C 147.988 188.047 156.508 186.187 161.398 191.217 C 161.55 191.381 161.822 191.318 161.888 191.105 C 161.893 191.089 161.896 191.073 161.898 191.057 Z M 155.088 209.007 C 158.976 209.034 162.154 205.17 162.188 200.376 C 162.221 195.582 159.097 191.674 155.209 191.647 C 151.321 191.62 148.142 195.484 148.108 200.278 C 148.075 205.072 151.2 208.98 155.088 209.007 Z" style="fill: rgb(25, 135, 84);"/>
    <path d="M 220.848 209.237 C 220.842 209.091 220.679 209.007 220.556 209.085 C 220.546 209.092 220.537 209.099 220.528 209.107 C 217.755 211.707 214.535 212.62 210.868 211.847 C 202.618 210.107 201.088 199.577 204.608 193.327 C 207.698 187.827 215.568 186.687 220.138 191.047 C 220.551 191.44 220.778 191.354 220.818 190.787 L 220.868 189.977 C 220.91 189.434 221.364 189.015 221.908 189.017 L 224.128 189.017 C 224.648 189.017 224.908 189.277 224.908 189.797 L 224.908 211.277 C 224.908 211.81 224.641 212.07 224.108 212.057 L 221.638 211.997 C 221.241 211.992 220.919 211.674 220.908 211.277 L 220.848 209.237 Z M 220.709 198.162 C 220.727 194.738 217.966 191.948 214.542 191.93 L 213.482 191.924 C 210.058 191.906 207.268 194.668 207.25 198.092 L 207.227 202.452 C 207.209 205.876 209.97 208.666 213.394 208.684 L 214.454 208.69 C 217.878 208.708 220.669 205.946 220.687 202.522 L 220.709 198.162 Z" style="fill: rgb(25, 135, 84);"/>
    <path d="M 235.508 190.577 C 235.401 191.677 235.765 191.86 236.598 191.127 C 242.258 186.137 251.948 187.707 251.908 196.917 C 251.888 201.95 251.875 206.657 251.868 211.037 C 251.868 211.71 251.531 212.044 250.858 212.037 L 248.678 212.007 C 248.085 212 247.798 211.7 247.818 211.107 C 247.931 206.48 247.901 201.667 247.728 196.667 C 247.588 192.667 244.488 191.007 240.948 191.987 C 237.681 192.894 236.018 195.19 235.958 198.877 C 235.891 202.997 235.871 207.104 235.898 211.197 C 235.905 211.757 235.628 212.037 235.068 212.037 L 232.368 212.037 C 231.868 212.037 231.618 211.787 231.618 211.287 L 231.598 189.577 C 231.598 189.17 231.801 188.95 232.208 188.917 C 233.121 188.844 233.925 188.93 234.618 189.177 C 235.278 189.41 235.575 189.877 235.508 190.577 Z" style="fill: rgb(25, 135, 84);"/>
    <path d="M 84.858 191.417 C 85.528 190.817 86.288 190.057 87.098 189.657 C 91.058 187.707 97.308 187.697 99.408 192.357 C 100.155 194.024 100.508 195.964 100.468 198.177 C 100.381 202.664 100.375 206.96 100.448 211.067 C 100.455 211.667 100.158 211.97 99.558 211.977 L 97.348 212.007 C 96.655 212.014 96.315 211.67 96.328 210.977 C 96.435 205.777 96.428 201.18 96.308 197.187 C 96.181 193.034 94.055 191.28 89.928 191.927 C 86.428 192.48 84.615 194.737 84.488 198.697 C 84.355 202.77 84.345 206.897 84.458 211.077 C 84.475 211.543 84.114 211.935 83.648 211.957 L 81.398 212.057 C 80.834 212.08 80.363 211.631 80.358 211.067 L 80.218 189.537 C 80.218 189.124 80.428 188.924 80.848 188.937 L 82.788 189.027 C 83.388 189.054 83.735 189.364 83.828 189.957 L 84.008 191.117 C 84.101 191.744 84.385 191.844 84.858 191.417 Z" style="fill: rgb(25, 135, 84);"/>
    <path d="M 114.188 191.777 C 109.618 192.057 108.818 197.337 113.798 198.407 C 116.548 198.997 119.798 199.467 122.098 201.197 C 125.098 203.447 124.628 207.967 121.938 210.087 C 117.928 213.227 110.288 212.387 106.408 209.717 C 105.728 209.244 105.555 208.627 105.888 207.867 L 106.188 207.167 C 106.501 206.447 106.988 206.3 107.648 206.727 C 110.808 208.747 115.588 210.057 118.998 207.917 C 120.004 207.285 120.47 206.064 120.138 204.927 C 119.458 202.567 114.438 201.767 112.338 201.367 C 108.648 200.657 105.608 197.987 106.468 193.977 C 106.981 191.61 108.368 190.037 110.628 189.257 C 114.961 187.757 119.008 188.217 122.768 190.637 C 123.4 191.046 123.662 191.837 123.398 192.537 L 123.198 193.077 C 122.831 194.057 122.215 194.254 121.348 193.667 C 119.268 192.24 116.881 191.61 114.188 191.777 Z" style="fill: rgb(25, 135, 84);"/>
</svg>