<?xml version="1.0" encoding="utf-8"?>
<svg version="1.1" viewBox="0 0 142 139" xmlns="http://www.w3.org/2000/svg">
  <path d="M 136.397 69.335 C 136.397 105.129 107.381 134.145 71.587 134.145 C 35.794 134.145 6.777 105.129 6.777 69.335 C 6.777 33.542 35.794 4.525 71.587 4.525 C 107.381 4.525 136.397 33.542 136.397 69.335 Z M 81.087 68.115 L 96.587 68.095 C 97.294 68.095 97.867 67.522 97.867 66.815 L 97.877 39.885 C 97.877 39.072 97.471 38.665 96.657 38.665 L 46.647 38.715 C 45.933 38.721 45.357 39.297 45.357 40.005 L 45.337 66.995 C 45.337 67.64 45.867 68.161 46.517 68.155 L 61.597 68.055 C 61.991 68.055 62.221 68.248 62.287 68.635 C 62.487 69.755 62.474 70.875 62.247 71.995 C 62.166 72.385 62.463 72.753 62.867 72.765 C 62.887 72.765 63.201 72.772 63.807 72.785 C 64.354 72.792 64.627 72.522 64.627 71.975 L 64.627 63.285 C 64.627 62.705 64.917 62.412 65.497 62.405 L 77.117 62.345 C 77.806 62.34 78.367 62.901 78.367 63.595 L 78.327 72.105 C 78.327 72.645 78.594 72.885 79.127 72.825 L 79.877 72.735 C 80.451 72.668 80.714 72.348 80.667 71.775 L 80.437 68.825 C 80.397 68.352 80.614 68.115 81.087 68.115 Z M 72.847 67.265 C 72.991 66.754 72.701 66.224 72.197 66.075 C 71.797 65.962 71.411 65.962 71.037 66.075 C 70.219 66.32 69.972 67.359 70.593 67.946 C 70.68 68.028 70.779 68.095 70.887 68.145 C 71.887 68.625 72.541 68.332 72.847 67.265 Z M 82.027 84.975 C 81.601 85.888 80.884 86.345 79.877 86.345 L 67.947 86.405 C 67.414 86.405 67.144 86.672 67.137 87.205 L 67.127 88.015 C 67.122 88.389 67.423 88.695 67.797 88.695 L 78.987 88.715 C 81.441 88.715 83.241 87.628 84.387 85.455 C 84.614 85.035 84.801 84.592 84.947 84.125 C 85.681 81.798 84.827 80.642 82.387 80.655 L 73.257 80.705 C 72.777 80.712 72.541 80.472 72.547 79.985 L 72.657 70.745 C 72.657 70.492 72.531 70.358 72.277 70.345 L 71.107 70.295 C 70.594 70.275 70.337 70.525 70.337 71.045 L 70.357 80.075 C 70.363 80.438 70.07 80.735 69.707 80.735 L 56.737 80.715 C 55.858 80.716 55.015 81.06 54.387 81.675 L 41.797 94.065 C 41.257 94.592 41.257 95.122 41.797 95.655 L 41.977 95.835 C 42.404 96.255 42.831 96.252 43.257 95.825 L 55.367 83.585 C 55.827 83.118 56.454 82.855 57.107 82.855 L 81.737 82.865 C 82.584 82.865 82.827 83.248 82.467 84.015 L 82.027 84.975 Z M 98.477 78.425 C 98.592 79.679 98.141 80.921 97.247 81.815 L 83.817 95.265 C 83.612 95.47 83.331 95.585 83.037 95.585 L 60.727 95.605 C 60.01 95.606 59.323 95.89 58.817 96.395 L 51.867 103.385 C 51.494 103.758 51.464 104.155 51.777 104.575 C 51.891 104.735 52.041 104.858 52.227 104.945 C 52.867 105.238 53.437 105.132 53.937 104.625 L 60.007 98.495 C 60.424 98.079 60.988 97.845 61.577 97.845 L 83.867 97.845 C 84.227 97.845 84.534 97.722 84.787 97.475 L 98.687 83.825 C 100.794 81.758 101.381 79.322 100.447 76.515 C 100.287 76.042 100.121 75.575 99.947 75.115 C 99.034 72.715 97.671 72.422 95.857 74.235 L 86.927 83.125 C 86.541 83.512 86.587 83.838 87.067 84.105 L 87.537 84.365 C 88.044 84.645 88.501 84.585 88.907 84.185 L 96.767 76.515 C 97.701 75.602 98.227 75.795 98.347 77.095 C 98.394 77.535 98.437 77.978 98.477 78.425 Z M 65.039 76.527 C 65.18 75.823 64.662 75.126 63.882 74.97 C 63.102 74.814 62.356 75.259 62.215 75.963 C 62.074 76.667 62.593 77.364 63.373 77.52 C 64.152 77.676 64.899 77.231 65.039 76.527 L 65.039 76.527 Z M 80.962 76.109 C 81.028 75.666 80.722 75.255 80.279 75.189 L 79.171 75.026 C 78.729 74.96 78.317 75.266 78.252 75.709 L 78.152 76.381 C 78.087 76.824 78.393 77.236 78.835 77.301 L 79.943 77.465 C 80.386 77.53 80.797 77.224 80.863 76.782 L 80.962 76.109 Z M 64.877 87.029 C 64.884 86.659 64.59 86.354 64.22 86.347 L 63.06 86.324 C 62.69 86.317 62.385 86.611 62.378 86.981 L 62.357 88.041 C 62.35 88.411 62.644 88.717 63.014 88.724 L 64.174 88.746 C 64.544 88.753 64.85 88.459 64.857 88.089 L 64.877 87.029 Z" style="fill: rgb(255, 255, 255);"/>
  <path d="M 54.397 45.525 C 53.977 46.658 53.211 47.432 52.097 47.845 C 51.486 48.068 51.079 48.651 51.077 49.305 L 51.077 57.275 C 51.077 57.84 51.373 58.364 51.857 58.655 C 53.084 59.395 54.024 60.365 54.677 61.565 C 54.932 62.024 55.408 62.314 55.927 62.325 L 61.897 62.505 C 62.233 62.516 62.494 62.796 62.477 63.125 L 62.377 64.975 C 62.351 65.568 62.037 65.865 61.437 65.865 L 48.127 65.885 C 47.835 65.885 47.597 65.648 47.597 65.355 L 47.617 41.735 C 47.617 41.288 47.975 40.925 48.417 40.925 L 95.057 40.985 C 95.223 40.985 95.357 41.119 95.357 41.285 L 95.337 65.345 C 95.337 65.638 95.1 65.875 94.807 65.875 L 81.387 65.845 C 80.894 65.845 80.621 65.602 80.567 65.115 L 80.357 63.345 C 80.291 62.812 80.524 62.535 81.057 62.515 L 87.297 62.275 C 87.794 62.257 88.246 61.98 88.487 61.545 C 89.087 60.445 89.931 59.568 91.017 58.915 C 91.693 58.513 92.107 57.784 92.107 56.995 L 92.097 49.645 C 92.097 49.032 91.844 48.548 91.337 48.195 C 90.144 47.362 89.127 46.328 88.287 45.095 C 87.941 44.588 87.461 44.335 86.847 44.335 L 56.107 44.335 C 55.344 44.334 54.661 44.809 54.397 45.525 Z" style="fill: rgb(255, 255, 255);"/>
  <path d="M 65.097 47.425 C 61.787 51.005 61.807 55.445 64.987 59.345 C 65.447 59.912 65.311 60.192 64.577 60.185 L 57.927 60.105 C 57.234 60.098 56.644 59.848 56.157 59.355 L 53.837 57.005 C 53.504 56.673 53.317 56.219 53.317 55.745 L 53.327 50.895 C 53.327 50.495 53.467 50.155 53.747 49.875 L 56.467 47.175 C 56.761 46.882 57.117 46.738 57.537 46.745 L 64.807 46.755 C 65.401 46.762 65.497 46.985 65.097 47.425 Z M 59.109 53.934 C 59.357 53.313 58.989 52.583 58.287 52.302 C 57.584 52.021 56.813 52.296 56.565 52.916 C 56.317 53.537 56.685 54.268 57.388 54.549 C 58.09 54.83 58.861 54.554 59.109 53.934 L 59.109 53.934 Z" style="fill: rgb(255, 255, 255);"/>
  <circle cx="71.527" cy="53.405" r="6.7" style="fill: rgb(255, 255, 255);"/>
  <path d="M 79.767 56.805 C 80.994 53.405 80.524 50.385 78.357 47.745 C 77.817 47.092 77.971 46.765 78.817 46.765 L 85.357 46.785 C 85.991 46.785 86.531 47.005 86.977 47.445 L 89.407 49.815 C 89.761 50.162 89.937 50.588 89.937 51.095 L 89.867 55.825 C 89.867 56.223 89.709 56.607 89.427 56.895 L 86.867 59.475 C 86.487 59.862 86.027 60.055 85.487 60.055 L 78.897 60.115 C 78.397 60.115 78.251 59.888 78.457 59.435 C 78.877 58.535 79.427 57.765 79.767 56.805 Z M 86.457 53.485 C 86.457 52.8 85.902 52.245 85.217 52.245 C 84.532 52.245 83.977 52.8 83.977 53.485 C 83.977 54.17 84.532 54.725 85.217 54.725 C 85.902 54.725 86.457 54.17 86.457 53.485 Z" style="fill: rgb(255, 255, 255);"/>
</svg>